<svg width="32" height="32" viewBox="0 0 32 32" fill="none" xmlns="http://www.w3.org/2000/svg">
  <circle cx="16" cy="16" r="16" fill="#2775CA"/>
  <path d="M19.817 23.044C19.817 21.333 18.435 19.984 16.695 19.984C14.956 19.984 13.574 21.333 13.574 23.044C13.574 24.754 14.956 26.103 16.695 26.103C18.435 26.103 19.817 24.754 19.817 23.044Z" fill="white"/>
  <path d="M24.5 15.9705C24.5 11.0359 20.2941 7 15 7C9.70585 7 5.5 11.0359 5.5 15.9705C5.5 20.9052 9.70585 24.9411 15 24.9411C20.2941 24.9411 24.5 20.9052 24.5 15.9705ZM9.8043 15.9705C9.8043 13.2941 12.1111 11.0974 15 11.0974C17.8889 11.0974 20.1957 13.2941 20.1957 15.9705C20.1957 18.647 17.8889 20.8437 15 20.8437C12.1111 20.8437 9.8043 18.647 9.8043 15.9705Z" fill="white"/>
</svg>