<svg width="32" height="32" viewBox="0 0 32 32" fill="none" xmlns="http://www.w3.org/2000/svg">
  <circle cx="16" cy="16" r="16" fill="#26A17B"/>
  <path d="M17.922 17.985V21.33H19.399V17.985C22.031 17.773 23.952 17.173 23.952 16.469C23.952 15.765 22.031 15.165 19.399 14.953V8.37C21.552 8.536 23.201 9.113 23.201 9.804C23.201 10.285 22.53 10.708 21.424 10.996V13.105C23.013 12.724 24 11.926 24 11.036C24 9.521 21.349 8.287 17.922 8.075V6.5H16.078V8.075C12.651 8.287 10 9.521 10 11.036C10 12.551 12.651 13.785 16.078 13.997V20.58C13.842 20.426 12.136 19.834 12.136 19.125C12.136 18.643 12.833 18.206 13.98 17.923V15.814C12.312 16.196 11.274 17.003 11.274 17.906C11.274 19.421 13.924 20.655 17.351 20.867V23.5H19.196V20.867C22.622 20.655 25.273 19.421 25.273 17.906C25.273 16.391 22.622 15.156 19.196 14.944V12.359C21.744 12.524 23.576 13.125 23.576 13.834C23.576 14.113 23.306 14.37 22.821 14.586V15.862C24.037 15.474 24.823 14.916 24.823 14.279C24.823 12.763 22.349 11.542 19.196 11.319V8.37C21.31 8.525 22.826 9.103 22.826 9.804C22.826 10.145 22.372 10.448 21.639 10.664V11.996C23.004 11.595 23.941 10.984 23.941 10.269C23.941 8.753 21.383 7.529 18.265 7.307C18.1 7.301 17.922 7.297 17.922 7.297V8.075C14.495 8.287 11.845 9.521 11.845 11.036C11.845 12.551 14.495 13.785 17.922 13.997V14.953C15.29 15.165 13.369 15.765 13.369 16.469C13.369 17.173 15.29 17.773 17.922 17.985ZM17.922 13.117C15.701 12.938 14.097 12.318 14.097 11.596C14.097 10.874 15.701 10.253 17.922 10.074V13.117ZM16.078 15.871C18.299 16.05 19.903 16.67 19.903 17.392C19.903 18.115 18.299 18.735 16.078 18.914V15.871Z" fill="white"/>
</svg>