<svg width="32" height="32" viewBox="0 0 32 32" fill="none" xmlns="http://www.w3.org/2000/svg">
  <path d="M16 32C24.8366 32 32 24.8366 32 16C32 7.16344 24.8366 0 16 0C7.16344 0 0 7.16344 0 16C0 24.8366 7.16344 32 16 32Z" fill="#E6007A"/>
  <path d="M16.0003 7.75C16.8173 7.75 17.5228 8.00476 18.1167 8.51427C18.7106 9.02379 19.0076 9.64427 19.0076 10.3757C19.0076 11.107 18.7106 11.7275 18.1167 12.237C17.5228 12.7465 16.8173 13.0013 16.0003 13.0013C15.1833 13.0013 14.4777 12.7465 13.8839 12.237C13.29 11.7275 12.993 11.107 12.993 10.3757C12.993 9.64427 13.29 9.02379 13.8839 8.51427C14.4777 8.00476 15.1833 7.75 16.0003 7.75ZM8.49887 11.6257C9.31585 11.6257 10.0214 11.8805 10.6153 12.39C11.2092 12.8995 11.5061 13.52 11.5061 14.2513C11.5061 14.9827 11.2092 15.6032 10.6153 16.1127C10.0214 16.6222 9.31585 16.877 8.49887 16.877C7.68188 16.877 6.97635 16.6222 6.38247 16.1127C5.78858 15.6032 5.49164 14.9827 5.49164 14.2513C5.49164 13.52 5.78858 12.8995 6.38247 12.39C6.97635 11.8805 7.68188 11.6257 8.49887 11.6257ZM23.5016 11.6257C24.3186 11.6257 25.0242 11.8805 25.618 12.39C26.2119 12.8995 26.5089 13.52 26.5089 14.2513C26.5089 14.9827 26.2119 15.6032 25.618 16.1127C25.0242 16.6222 24.3186 16.877 23.5016 16.877C22.6846 16.877 21.9791 16.6222 21.3852 16.1127C20.7913 15.6032 20.4944 14.9827 20.4944 14.2513C20.4944 13.52 20.7913 12.8995 21.3852 12.39C21.9791 11.8805 22.6846 11.6257 23.5016 11.6257ZM8.49887 18.1257C9.31585 18.1257 10.0214 18.3805 10.6153 18.89C11.2092 19.3995 11.5061 20.02 11.5061 20.7514C11.5061 21.4827 11.2092 22.1032 10.6153 22.6127C10.0214 23.1222 9.31585 23.377 8.49887 23.377C7.68188 23.377 6.97635 23.1222 6.38247 22.6127C5.78858 22.1032 5.49164 21.4827 5.49164 20.7514C5.49164 20.02 5.78858 19.3995 6.38247 18.89C6.97635 18.3805 7.68188 18.1257 8.49887 18.1257ZM23.5016 18.1257C24.3186 18.1257 25.0242 18.3805 25.618 18.89C26.2119 19.3995 26.5089 20.02 26.5089 20.7514C26.5089 21.4827 26.2119 22.1032 25.618 22.6127C25.0242 23.1222 24.3186 23.377 23.5016 23.377C22.6846 23.377 21.9791 23.1222 21.3852 22.6127C20.7913 22.1032 20.4944 21.4827 20.4944 20.7514C20.4944 20.02 20.7913 19.3995 21.3852 18.89C21.9791 18.3805 22.6846 18.1257 23.5016 18.1257ZM16.0003 22.0014C16.8173 22.0014 17.5228 22.2561 18.1167 22.7656C18.7106 23.2751 19.0076 23.8956 19.0076 24.6269C19.0076 25.3583 18.7106 25.9788 18.1167 26.4883C17.5228 26.9978 16.8173 27.2526 16.0003 27.2526C15.1833 27.2526 14.4777 26.9978 13.8839 26.4883C13.29 25.9788 12.993 25.3583 12.993 24.6269C12.993 23.8956 13.29 23.2751 13.8839 22.7656C14.4777 22.2561 15.1833 22.0014 16.0003 22.0014Z" fill="white"/>
</svg>